<?xml version='1.0' encoding='UTF-8'?>
<!DOCTYPE svg PUBLIC "-//W3C//DTD SVG 1.0//EN" "http://www.w3.org/TR/2001/REC-SVG-20010904/DTD/svg10.dtd ">
<svg width="8.27in" height="11.69in" xmlns="http://www.w3.org/2000/svg" >
	<desc>map grid</desc>
	<polygon stroke-width="0.01in" stroke="black" points="34.64999999999998, 38.97114317029974  57.14999999999998, 77.94228634059948  102.14999999999998, 77.94228634059948  124.64999999999998, 38.97114317029974  102.14999999999998, 0.0  57.14999999999998, 0.0  " fill="none"/>
	<polygon stroke-width="0.01in" stroke="black" points="169.64999999999998, 38.97114317029974  192.14999999999998, 77.94228634059948  237.14999999999998, 77.94228634059948  259.65, 38.97114317029974  237.14999999999998, 0.0  192.14999999999998, 0.0  " fill="none"/>
	<polygon stroke-width="0.01in" stroke="black" points="304.65, 38.97114317029974  327.15, 77.94228634059948  372.15, 77.94228634059948  394.65, 38.97114317029974  372.15, 0.0  327.15, 0.0  " fill="none"/>
	<polygon stroke-width="0.01in" stroke="black" points="439.65, 38.97114317029974  462.15, 77.94228634059948  507.15, 77.94228634059948  529.65, 38.97114317029974  507.15, 0.0  462.15, 0.0  " fill="none"/>
	<polygon stroke-width="0.01in" stroke="black" points="574.65, 38.97114317029974  597.15, 77.94228634059948  642.15, 77.94228634059948  664.65, 38.97114317029974  642.15, 0.0  597.15, 0.0  " fill="none"/>
	<polygon stroke-width="0.01in" stroke="black" points="102.14999999999998, 77.94228634059948  124.64999999999998, 116.91342951089922  169.64999999999998, 116.91342951089922  192.14999999999998, 77.94228634059948  169.64999999999998, 38.97114317029974  124.64999999999998, 38.97114317029974  " fill="none"/>
	<polygon stroke-width="0.01in" stroke="black" points="237.14999999999998, 77.94228634059948  259.65, 116.91342951089922  304.65, 116.91342951089922  327.15, 77.94228634059948  304.65, 38.97114317029974  259.65, 38.97114317029974  " fill="none"/>
	<polygon stroke-width="0.01in" stroke="black" points="372.15, 77.94228634059948  394.65, 116.91342951089922  439.65, 116.91342951089922  462.15, 77.94228634059948  439.65, 38.97114317029974  394.65, 38.97114317029974  " fill="none"/>
	<polygon stroke-width="0.01in" stroke="black" points="507.15, 77.94228634059948  529.65, 116.91342951089922  574.65, 116.91342951089922  597.15, 77.94228634059948  574.65, 38.97114317029974  529.65, 38.97114317029974  " fill="none"/>
	<polygon stroke-width="0.01in" stroke="black" points="642.15, 77.94228634059948  664.65, 116.91342951089922  709.65, 116.91342951089922  732.15, 77.94228634059948  709.65, 38.97114317029974  664.65, 38.97114317029974  " fill="none"/>
	<polygon stroke-width="0.01in" stroke="black" points="34.64999999999998, 116.91342951089922  57.14999999999998, 155.88457268119896  102.14999999999998, 155.88457268119896  124.64999999999998, 116.91342951089922  102.14999999999998, 77.94228634059948  57.14999999999998, 77.94228634059948  " fill="none"/>
	<polygon stroke-width="0.01in" stroke="black" points="169.64999999999998, 116.91342951089922  192.14999999999998, 155.88457268119896  237.14999999999998, 155.88457268119896  259.65, 116.91342951089922  237.14999999999998, 77.94228634059948  192.14999999999998, 77.94228634059948  " fill="none"/>
	<polygon stroke-width="0.01in" stroke="black" points="304.65, 116.91342951089922  327.15, 155.88457268119896  372.15, 155.88457268119896  394.65, 116.91342951089922  372.15, 77.94228634059948  327.15, 77.94228634059948  " fill="none"/>
	<polygon stroke-width="0.01in" stroke="black" points="439.65, 116.91342951089922  462.15, 155.88457268119896  507.15, 155.88457268119896  529.65, 116.91342951089922  507.15, 77.94228634059948  462.15, 77.94228634059948  " fill="none"/>
	<polygon stroke-width="0.01in" stroke="black" points="574.65, 116.91342951089922  597.15, 155.88457268119896  642.15, 155.88457268119896  664.65, 116.91342951089922  642.15, 77.94228634059948  597.15, 77.94228634059948  " fill="none"/>
	<polygon stroke-width="0.01in" stroke="black" points="102.14999999999998, 155.88457268119896  124.64999999999998, 194.85571585149867  169.64999999999998, 194.85571585149867  192.14999999999998, 155.88457268119896  169.64999999999998, 116.91342951089922  124.64999999999998, 116.91342951089922  " fill="none"/>
	<polygon stroke-width="0.01in" stroke="black" points="237.14999999999998, 155.88457268119896  259.65, 194.85571585149867  304.65, 194.85571585149867  327.15, 155.88457268119896  304.65, 116.91342951089922  259.65, 116.91342951089922  " fill="none"/>
	<polygon stroke-width="0.01in" stroke="black" points="372.15, 155.88457268119896  394.65, 194.85571585149867  439.65, 194.85571585149867  462.15, 155.88457268119896  439.65, 116.91342951089922  394.65, 116.91342951089922  " fill="none"/>
	<polygon stroke-width="0.01in" stroke="black" points="507.15, 155.88457268119896  529.65, 194.85571585149867  574.65, 194.85571585149867  597.15, 155.88457268119896  574.65, 116.91342951089922  529.65, 116.91342951089922  " fill="none"/>
	<polygon stroke-width="0.01in" stroke="black" points="642.15, 155.88457268119896  664.65, 194.85571585149867  709.65, 194.85571585149867  732.15, 155.88457268119896  709.65, 116.91342951089922  664.65, 116.91342951089922  " fill="none"/>
	<polygon stroke-width="0.01in" stroke="black" points="34.64999999999998, 194.85571585149867  57.14999999999998, 233.82685902179844  102.14999999999998, 233.82685902179844  124.64999999999998, 194.85571585149867  102.14999999999998, 155.88457268119896  57.14999999999998, 155.88457268119896  " fill="none"/>
	<polygon stroke-width="0.01in" stroke="black" points="169.64999999999998, 194.85571585149867  192.14999999999998, 233.82685902179844  237.14999999999998, 233.82685902179844  259.65, 194.85571585149867  237.14999999999998, 155.88457268119896  192.14999999999998, 155.88457268119896  " fill="none"/>
	<polygon stroke-width="0.01in" stroke="black" points="304.65, 194.85571585149867  327.15, 233.82685902179844  372.15, 233.82685902179844  394.65, 194.85571585149867  372.15, 155.88457268119896  327.15, 155.88457268119896  " fill="none"/>
	<polygon stroke-width="0.01in" stroke="black" points="439.65, 194.85571585149867  462.15, 233.82685902179844  507.15, 233.82685902179844  529.65, 194.85571585149867  507.15, 155.88457268119896  462.15, 155.88457268119896  " fill="none"/>
	<polygon stroke-width="0.01in" stroke="black" points="574.65, 194.85571585149867  597.15, 233.82685902179844  642.15, 233.82685902179844  664.65, 194.85571585149867  642.15, 155.88457268119896  597.15, 155.88457268119896  " fill="none"/>
	<polygon stroke-width="0.01in" stroke="black" points="102.14999999999998, 233.8268590217984  124.64999999999998, 272.7980021920981  169.64999999999998, 272.7980021920981  192.14999999999998, 233.8268590217984  169.64999999999998, 194.85571585149867  124.64999999999998, 194.85571585149867  " fill="none"/>
	<polygon stroke-width="0.01in" stroke="black" points="237.14999999999998, 233.8268590217984  259.65, 272.7980021920981  304.65, 272.7980021920981  327.15, 233.8268590217984  304.65, 194.85571585149867  259.65, 194.85571585149867  " fill="none"/>
	<polygon stroke-width="0.01in" stroke="black" points="372.15, 233.8268590217984  394.65, 272.7980021920981  439.65, 272.7980021920981  462.15, 233.8268590217984  439.65, 194.85571585149867  394.65, 194.85571585149867  " fill="none"/>
	<polygon stroke-width="0.01in" stroke="black" points="507.15, 233.8268590217984  529.65, 272.7980021920981  574.65, 272.7980021920981  597.15, 233.8268590217984  574.65, 194.85571585149867  529.65, 194.85571585149867  " fill="none"/>
	<polygon stroke-width="0.01in" stroke="black" points="642.15, 233.8268590217984  664.65, 272.7980021920981  709.65, 272.7980021920981  732.15, 233.8268590217984  709.65, 194.85571585149867  664.65, 194.85571585149867  " fill="none"/>
	<polygon stroke-width="0.01in" stroke="black" points="34.64999999999998, 272.7980021920982  57.14999999999998, 311.7691453623979  102.14999999999998, 311.7691453623979  124.64999999999998, 272.7980021920982  102.14999999999998, 233.82685902179844  57.14999999999998, 233.82685902179844  " fill="none"/>
	<polygon stroke-width="0.01in" stroke="black" points="169.64999999999998, 272.7980021920982  192.14999999999998, 311.7691453623979  237.14999999999998, 311.7691453623979  259.65, 272.7980021920982  237.14999999999998, 233.82685902179844  192.14999999999998, 233.82685902179844  " fill="none"/>
	<polygon stroke-width="0.01in" stroke="black" points="304.65, 272.7980021920982  327.15, 311.7691453623979  372.15, 311.7691453623979  394.65, 272.7980021920982  372.15, 233.82685902179844  327.15, 233.82685902179844  " fill="none"/>
	<polygon stroke-width="0.01in" stroke="black" points="439.65, 272.7980021920982  462.15, 311.7691453623979  507.15, 311.7691453623979  529.65, 272.7980021920982  507.15, 233.82685902179844  462.15, 233.82685902179844  " fill="none"/>
	<polygon stroke-width="0.01in" stroke="black" points="574.65, 272.7980021920982  597.15, 311.7691453623979  642.15, 311.7691453623979  664.65, 272.7980021920982  642.15, 233.82685902179844  597.15, 233.82685902179844  " fill="none"/>
	<polygon stroke-width="0.01in" stroke="black" points="102.14999999999998, 311.7691453623979  124.64999999999998, 350.74028853269766  169.64999999999998, 350.74028853269766  192.14999999999998, 311.7691453623979  169.64999999999998, 272.7980021920982  124.64999999999998, 272.7980021920982  " fill="none"/>
	<polygon stroke-width="0.01in" stroke="black" points="237.14999999999998, 311.7691453623979  259.65, 350.74028853269766  304.65, 350.74028853269766  327.15, 311.7691453623979  304.65, 272.7980021920982  259.65, 272.7980021920982  " fill="none"/>
	<polygon stroke-width="0.01in" stroke="black" points="372.15, 311.7691453623979  394.65, 350.74028853269766  439.65, 350.74028853269766  462.15, 311.7691453623979  439.65, 272.7980021920982  394.65, 272.7980021920982  " fill="none"/>
	<polygon stroke-width="0.01in" stroke="black" points="507.15, 311.7691453623979  529.65, 350.74028853269766  574.65, 350.74028853269766  597.15, 311.7691453623979  574.65, 272.7980021920982  529.65, 272.7980021920982  " fill="none"/>
	<polygon stroke-width="0.01in" stroke="black" points="642.15, 311.7691453623979  664.65, 350.74028853269766  709.65, 350.74028853269766  732.15, 311.7691453623979  709.65, 272.7980021920982  664.65, 272.7980021920982  " fill="none"/>
	<polygon stroke-width="0.01in" stroke="black" points="34.64999999999998, 350.7402885326976  57.14999999999998, 389.71143170299734  102.14999999999998, 389.71143170299734  124.64999999999998, 350.7402885326976  102.14999999999998, 311.7691453623979  57.14999999999998, 311.7691453623979  " fill="none"/>
	<polygon stroke-width="0.01in" stroke="black" points="169.64999999999998, 350.7402885326976  192.14999999999998, 389.71143170299734  237.14999999999998, 389.71143170299734  259.65, 350.7402885326976  237.14999999999998, 311.7691453623979  192.14999999999998, 311.7691453623979  " fill="none"/>
	<polygon stroke-width="0.01in" stroke="black" points="304.65, 350.7402885326976  327.15, 389.71143170299734  372.15, 389.71143170299734  394.65, 350.7402885326976  372.15, 311.7691453623979  327.15, 311.7691453623979  " fill="none"/>
	<polygon stroke-width="0.01in" stroke="black" points="439.65, 350.7402885326976  462.15, 389.71143170299734  507.15, 389.71143170299734  529.65, 350.7402885326976  507.15, 311.7691453623979  462.15, 311.7691453623979  " fill="none"/>
	<polygon stroke-width="0.01in" stroke="black" points="574.65, 350.7402885326976  597.15, 389.71143170299734  642.15, 389.71143170299734  664.65, 350.7402885326976  642.15, 311.7691453623979  597.15, 311.7691453623979  " fill="none"/>
	<polygon stroke-width="0.01in" stroke="black" points="102.14999999999998, 389.71143170299734  124.64999999999998, 428.68257487329714  169.64999999999998, 428.68257487329714  192.14999999999998, 389.71143170299734  169.64999999999998, 350.7402885326976  124.64999999999998, 350.7402885326976  " fill="none"/>
	<polygon stroke-width="0.01in" stroke="black" points="237.14999999999998, 389.71143170299734  259.65, 428.68257487329714  304.65, 428.68257487329714  327.15, 389.71143170299734  304.65, 350.7402885326976  259.65, 350.7402885326976  " fill="none"/>
	<polygon stroke-width="0.01in" stroke="black" points="372.15, 389.71143170299734  394.65, 428.68257487329714  439.65, 428.68257487329714  462.15, 389.71143170299734  439.65, 350.7402885326976  394.65, 350.7402885326976  " fill="none"/>
	<polygon stroke-width="0.01in" stroke="black" points="507.15, 389.71143170299734  529.65, 428.68257487329714  574.65, 428.68257487329714  597.15, 389.71143170299734  574.65, 350.7402885326976  529.65, 350.7402885326976  " fill="none"/>
	<polygon stroke-width="0.01in" stroke="black" points="642.15, 389.71143170299734  664.65, 428.68257487329714  709.65, 428.68257487329714  732.15, 389.71143170299734  709.65, 350.7402885326976  664.65, 350.7402885326976  " fill="none"/>
	<polygon stroke-width="0.01in" stroke="black" points="34.64999999999998, 428.68257487329714  57.14999999999998, 467.6537180435968  102.14999999999998, 467.6537180435968  124.64999999999998, 428.68257487329714  102.14999999999998, 389.71143170299734  57.14999999999998, 389.71143170299734  " fill="none"/>
	<polygon stroke-width="0.01in" stroke="black" points="169.64999999999998, 428.68257487329714  192.14999999999998, 467.6537180435968  237.14999999999998, 467.6537180435968  259.65, 428.68257487329714  237.14999999999998, 389.71143170299734  192.14999999999998, 389.71143170299734  " fill="none"/>
	<polygon stroke-width="0.01in" stroke="black" points="304.65, 428.68257487329714  327.15, 467.6537180435968  372.15, 467.6537180435968  394.65, 428.68257487329714  372.15, 389.71143170299734  327.15, 389.71143170299734  " fill="none"/>
	<polygon stroke-width="0.01in" stroke="black" points="439.65, 428.68257487329714  462.15, 467.6537180435968  507.15, 467.6537180435968  529.65, 428.68257487329714  507.15, 389.71143170299734  462.15, 389.71143170299734  " fill="none"/>
	<polygon stroke-width="0.01in" stroke="black" points="574.65, 428.68257487329714  597.15, 467.6537180435968  642.15, 467.6537180435968  664.65, 428.68257487329714  642.15, 389.71143170299734  597.15, 389.71143170299734  " fill="none"/>
	<polygon stroke-width="0.01in" stroke="black" points="102.14999999999998, 467.6537180435969  124.64999999999998, 506.62486121389657  169.64999999999998, 506.62486121389657  192.14999999999998, 467.6537180435969  169.64999999999998, 428.68257487329714  124.64999999999998, 428.68257487329714  " fill="none"/>
	<polygon stroke-width="0.01in" stroke="black" points="237.14999999999998, 467.6537180435969  259.65, 506.62486121389657  304.65, 506.62486121389657  327.15, 467.6537180435969  304.65, 428.68257487329714  259.65, 428.68257487329714  " fill="none"/>
	<polygon stroke-width="0.01in" stroke="black" points="372.15, 467.6537180435969  394.65, 506.62486121389657  439.65, 506.62486121389657  462.15, 467.6537180435969  439.65, 428.68257487329714  394.65, 428.68257487329714  " fill="none"/>
	<polygon stroke-width="0.01in" stroke="black" points="507.15, 467.6537180435969  529.65, 506.62486121389657  574.65, 506.62486121389657  597.15, 467.6537180435969  574.65, 428.68257487329714  529.65, 428.68257487329714  " fill="none"/>
	<polygon stroke-width="0.01in" stroke="black" points="642.15, 467.6537180435969  664.65, 506.62486121389657  709.65, 506.62486121389657  732.15, 467.6537180435969  709.65, 428.68257487329714  664.65, 428.68257487329714  " fill="none"/>
	<polygon stroke-width="0.01in" stroke="black" points="34.64999999999998, 506.6248612138966  57.14999999999998, 545.5960043841964  102.14999999999998, 545.5960043841964  124.64999999999998, 506.6248612138966  102.14999999999998, 467.6537180435969  57.14999999999998, 467.6537180435969  " fill="none"/>
	<polygon stroke-width="0.01in" stroke="black" points="169.64999999999998, 506.6248612138966  192.14999999999998, 545.5960043841964  237.14999999999998, 545.5960043841964  259.65, 506.6248612138966  237.14999999999998, 467.6537180435969  192.14999999999998, 467.6537180435969  " fill="none"/>
	<polygon stroke-width="0.01in" stroke="black" points="304.65, 506.6248612138966  327.15, 545.5960043841964  372.15, 545.5960043841964  394.65, 506.6248612138966  372.15, 467.6537180435969  327.15, 467.6537180435969  " fill="none"/>
	<polygon stroke-width="0.01in" stroke="black" points="439.65, 506.6248612138966  462.15, 545.5960043841964  507.15, 545.5960043841964  529.65, 506.6248612138966  507.15, 467.6537180435969  462.15, 467.6537180435969  " fill="none"/>
	<polygon stroke-width="0.01in" stroke="black" points="574.65, 506.6248612138966  597.15, 545.5960043841964  642.15, 545.5960043841964  664.65, 506.6248612138966  642.15, 467.6537180435969  597.15, 467.6537180435969  " fill="none"/>
	<polygon stroke-width="0.01in" stroke="black" points="102.14999999999998, 545.5960043841964  124.64999999999998, 584.567147554496  169.64999999999998, 584.567147554496  192.14999999999998, 545.5960043841964  169.64999999999998, 506.62486121389657  124.64999999999998, 506.62486121389657  " fill="none"/>
	<polygon stroke-width="0.01in" stroke="black" points="237.14999999999998, 545.5960043841964  259.65, 584.567147554496  304.65, 584.567147554496  327.15, 545.5960043841964  304.65, 506.62486121389657  259.65, 506.62486121389657  " fill="none"/>
	<polygon stroke-width="0.01in" stroke="black" points="372.15, 545.5960043841964  394.65, 584.567147554496  439.65, 584.567147554496  462.15, 545.5960043841964  439.65, 506.62486121389657  394.65, 506.62486121389657  " fill="none"/>
	<polygon stroke-width="0.01in" stroke="black" points="507.15, 545.5960043841964  529.65, 584.567147554496  574.65, 584.567147554496  597.15, 545.5960043841964  574.65, 506.62486121389657  529.65, 506.62486121389657  " fill="none"/>
	<polygon stroke-width="0.01in" stroke="black" points="642.15, 545.5960043841964  664.65, 584.567147554496  709.65, 584.567147554496  732.15, 545.5960043841964  709.65, 506.62486121389657  664.65, 506.62486121389657  " fill="none"/>
	<polygon stroke-width="0.01in" stroke="black" points="34.64999999999998, 584.5671475544962  57.14999999999998, 623.5382907247958  102.14999999999998, 623.5382907247958  124.64999999999998, 584.5671475544962  102.14999999999998, 545.5960043841964  57.14999999999998, 545.5960043841964  " fill="none"/>
	<polygon stroke-width="0.01in" stroke="black" points="169.64999999999998, 584.5671475544962  192.14999999999998, 623.5382907247958  237.14999999999998, 623.5382907247958  259.65, 584.5671475544962  237.14999999999998, 545.5960043841964  192.14999999999998, 545.5960043841964  " fill="none"/>
	<polygon stroke-width="0.01in" stroke="black" points="304.65, 584.5671475544962  327.15, 623.5382907247958  372.15, 623.5382907247958  394.65, 584.5671475544962  372.15, 545.5960043841964  327.15, 545.5960043841964  " fill="none"/>
	<polygon stroke-width="0.01in" stroke="black" points="439.65, 584.5671475544962  462.15, 623.5382907247958  507.15, 623.5382907247958  529.65, 584.5671475544962  507.15, 545.5960043841964  462.15, 545.5960043841964  " fill="none"/>
	<polygon stroke-width="0.01in" stroke="black" points="574.65, 584.5671475544962  597.15, 623.5382907247958  642.15, 623.5382907247958  664.65, 584.5671475544962  642.15, 545.5960043841964  597.15, 545.5960043841964  " fill="none"/>
	<polygon stroke-width="0.01in" stroke="black" points="102.14999999999998, 623.5382907247958  124.64999999999998, 662.5094338950955  169.64999999999998, 662.5094338950955  192.14999999999998, 623.5382907247958  169.64999999999998, 584.567147554496  124.64999999999998, 584.567147554496  " fill="none"/>
	<polygon stroke-width="0.01in" stroke="black" points="237.14999999999998, 623.5382907247958  259.65, 662.5094338950955  304.65, 662.5094338950955  327.15, 623.5382907247958  304.65, 584.567147554496  259.65, 584.567147554496  " fill="none"/>
	<polygon stroke-width="0.01in" stroke="black" points="372.15, 623.5382907247958  394.65, 662.5094338950955  439.65, 662.5094338950955  462.15, 623.5382907247958  439.65, 584.567147554496  394.65, 584.567147554496  " fill="none"/>
	<polygon stroke-width="0.01in" stroke="black" points="507.15, 623.5382907247958  529.65, 662.5094338950955  574.65, 662.5094338950955  597.15, 623.5382907247958  574.65, 584.567147554496  529.65, 584.567147554496  " fill="none"/>
	<polygon stroke-width="0.01in" stroke="black" points="642.15, 623.5382907247958  664.65, 662.5094338950955  709.65, 662.5094338950955  732.15, 623.5382907247958  709.65, 584.567147554496  664.65, 584.567147554496  " fill="none"/>
	<polygon stroke-width="0.01in" stroke="black" points="34.64999999999998, 662.5094338950955  57.14999999999998, 701.4805770653952  102.14999999999998, 701.4805770653952  124.64999999999998, 662.5094338950955  102.14999999999998, 623.5382907247958  57.14999999999998, 623.5382907247958  " fill="none"/>
	<polygon stroke-width="0.01in" stroke="black" points="169.64999999999998, 662.5094338950955  192.14999999999998, 701.4805770653952  237.14999999999998, 701.4805770653952  259.65, 662.5094338950955  237.14999999999998, 623.5382907247958  192.14999999999998, 623.5382907247958  " fill="none"/>
	<polygon stroke-width="0.01in" stroke="black" points="304.65, 662.5094338950955  327.15, 701.4805770653952  372.15, 701.4805770653952  394.65, 662.5094338950955  372.15, 623.5382907247958  327.15, 623.5382907247958  " fill="none"/>
	<polygon stroke-width="0.01in" stroke="black" points="439.65, 662.5094338950955  462.15, 701.4805770653952  507.15, 701.4805770653952  529.65, 662.5094338950955  507.15, 623.5382907247958  462.15, 623.5382907247958  " fill="none"/>
	<polygon stroke-width="0.01in" stroke="black" points="574.65, 662.5094338950955  597.15, 701.4805770653952  642.15, 701.4805770653952  664.65, 662.5094338950955  642.15, 623.5382907247958  597.15, 623.5382907247958  " fill="none"/>
	<polygon stroke-width="0.01in" stroke="black" points="102.14999999999998, 701.4805770653953  124.64999999999998, 740.451720235695  169.64999999999998, 740.451720235695  192.14999999999998, 701.4805770653953  169.64999999999998, 662.5094338950955  124.64999999999998, 662.5094338950955  " fill="none"/>
	<polygon stroke-width="0.01in" stroke="black" points="237.14999999999998, 701.4805770653953  259.65, 740.451720235695  304.65, 740.451720235695  327.15, 701.4805770653953  304.65, 662.5094338950955  259.65, 662.5094338950955  " fill="none"/>
	<polygon stroke-width="0.01in" stroke="black" points="372.15, 701.4805770653953  394.65, 740.451720235695  439.65, 740.451720235695  462.15, 701.4805770653953  439.65, 662.5094338950955  394.65, 662.5094338950955  " fill="none"/>
	<polygon stroke-width="0.01in" stroke="black" points="507.15, 701.4805770653953  529.65, 740.451720235695  574.65, 740.451720235695  597.15, 701.4805770653953  574.65, 662.5094338950955  529.65, 662.5094338950955  " fill="none"/>
	<polygon stroke-width="0.01in" stroke="black" points="642.15, 701.4805770653953  664.65, 740.451720235695  709.65, 740.451720235695  732.15, 701.4805770653953  709.65, 662.5094338950955  664.65, 662.5094338950955  " fill="none"/>
	<polygon stroke-width="0.01in" stroke="black" points="34.64999999999998, 740.451720235695  57.14999999999998, 779.4228634059947  102.14999999999998, 779.4228634059947  124.64999999999998, 740.451720235695  102.14999999999998, 701.4805770653952  57.14999999999998, 701.4805770653952  " fill="none"/>
	<polygon stroke-width="0.01in" stroke="black" points="169.64999999999998, 740.451720235695  192.14999999999998, 779.4228634059947  237.14999999999998, 779.4228634059947  259.65, 740.451720235695  237.14999999999998, 701.4805770653952  192.14999999999998, 701.4805770653952  " fill="none"/>
	<polygon stroke-width="0.01in" stroke="black" points="304.65, 740.451720235695  327.15, 779.4228634059947  372.15, 779.4228634059947  394.65, 740.451720235695  372.15, 701.4805770653952  327.15, 701.4805770653952  " fill="none"/>
	<polygon stroke-width="0.01in" stroke="black" points="439.65, 740.451720235695  462.15, 779.4228634059947  507.15, 779.4228634059947  529.65, 740.451720235695  507.15, 701.4805770653952  462.15, 701.4805770653952  " fill="none"/>
	<polygon stroke-width="0.01in" stroke="black" points="574.65, 740.451720235695  597.15, 779.4228634059947  642.15, 779.4228634059947  664.65, 740.451720235695  642.15, 701.4805770653952  597.15, 701.4805770653952  " fill="none"/>
	<polygon stroke-width="0.01in" stroke="black" points="102.14999999999998, 779.4228634059947  124.64999999999998, 818.3940065762945  169.64999999999998, 818.3940065762945  192.14999999999998, 779.4228634059947  169.64999999999998, 740.451720235695  124.64999999999998, 740.451720235695  " fill="none"/>
	<polygon stroke-width="0.01in" stroke="black" points="237.14999999999998, 779.4228634059947  259.65, 818.3940065762945  304.65, 818.3940065762945  327.15, 779.4228634059947  304.65, 740.451720235695  259.65, 740.451720235695  " fill="none"/>
	<polygon stroke-width="0.01in" stroke="black" points="372.15, 779.4228634059947  394.65, 818.3940065762945  439.65, 818.3940065762945  462.15, 779.4228634059947  439.65, 740.451720235695  394.65, 740.451720235695  " fill="none"/>
	<polygon stroke-width="0.01in" stroke="black" points="507.15, 779.4228634059947  529.65, 818.3940065762945  574.65, 818.3940065762945  597.15, 779.4228634059947  574.65, 740.451720235695  529.65, 740.451720235695  " fill="none"/>
	<polygon stroke-width="0.01in" stroke="black" points="642.15, 779.4228634059947  664.65, 818.3940065762945  709.65, 818.3940065762945  732.15, 779.4228634059947  709.65, 740.451720235695  664.65, 740.451720235695  " fill="none"/>
	<polygon stroke-width="0.01in" stroke="black" points="34.64999999999998, 818.3940065762944  57.14999999999998, 857.3651497465943  102.14999999999998, 857.3651497465943  124.64999999999998, 818.3940065762944  102.14999999999998, 779.4228634059947  57.14999999999998, 779.4228634059947  " fill="none"/>
	<polygon stroke-width="0.01in" stroke="black" points="169.64999999999998, 818.3940065762944  192.14999999999998, 857.3651497465943  237.14999999999998, 857.3651497465943  259.65, 818.3940065762944  237.14999999999998, 779.4228634059947  192.14999999999998, 779.4228634059947  " fill="none"/>
	<polygon stroke-width="0.01in" stroke="black" points="304.65, 818.3940065762944  327.15, 857.3651497465943  372.15, 857.3651497465943  394.65, 818.3940065762944  372.15, 779.4228634059947  327.15, 779.4228634059947  " fill="none"/>
	<polygon stroke-width="0.01in" stroke="black" points="439.65, 818.3940065762944  462.15, 857.3651497465943  507.15, 857.3651497465943  529.65, 818.3940065762944  507.15, 779.4228634059947  462.15, 779.4228634059947  " fill="none"/>
	<polygon stroke-width="0.01in" stroke="black" points="574.65, 818.3940065762944  597.15, 857.3651497465943  642.15, 857.3651497465943  664.65, 818.3940065762944  642.15, 779.4228634059947  597.15, 779.4228634059947  " fill="none"/>
	<polygon stroke-width="0.01in" stroke="black" points="102.14999999999998, 857.3651497465943  124.64999999999998, 896.3362929168941  169.64999999999998, 896.3362929168941  192.14999999999998, 857.3651497465943  169.64999999999998, 818.3940065762945  124.64999999999998, 818.3940065762945  " fill="none"/>
	<polygon stroke-width="0.01in" stroke="black" points="237.14999999999998, 857.3651497465943  259.65, 896.3362929168941  304.65, 896.3362929168941  327.15, 857.3651497465943  304.65, 818.3940065762945  259.65, 818.3940065762945  " fill="none"/>
	<polygon stroke-width="0.01in" stroke="black" points="372.15, 857.3651497465943  394.65, 896.3362929168941  439.65, 896.3362929168941  462.15, 857.3651497465943  439.65, 818.3940065762945  394.65, 818.3940065762945  " fill="none"/>
	<polygon stroke-width="0.01in" stroke="black" points="507.15, 857.3651497465943  529.65, 896.3362929168941  574.65, 896.3362929168941  597.15, 857.3651497465943  574.65, 818.3940065762945  529.65, 818.3940065762945  " fill="none"/>
	<polygon stroke-width="0.01in" stroke="black" points="642.15, 857.3651497465943  664.65, 896.3362929168941  709.65, 896.3362929168941  732.15, 857.3651497465943  709.65, 818.3940065762945  664.65, 818.3940065762945  " fill="none"/>
	<polygon stroke-width="0.01in" stroke="black" points="34.64999999999998, 896.336292916894  57.14999999999998, 935.3074360871938  102.14999999999998, 935.3074360871938  124.64999999999998, 896.336292916894  102.14999999999998, 857.3651497465943  57.14999999999998, 857.3651497465943  " fill="none"/>
	<polygon stroke-width="0.01in" stroke="black" points="169.64999999999998, 896.336292916894  192.14999999999998, 935.3074360871938  237.14999999999998, 935.3074360871938  259.65, 896.336292916894  237.14999999999998, 857.3651497465943  192.14999999999998, 857.3651497465943  " fill="none"/>
	<polygon stroke-width="0.01in" stroke="black" points="304.65, 896.336292916894  327.15, 935.3074360871938  372.15, 935.3074360871938  394.65, 896.336292916894  372.15, 857.3651497465943  327.15, 857.3651497465943  " fill="none"/>
	<polygon stroke-width="0.01in" stroke="black" points="439.65, 896.336292916894  462.15, 935.3074360871938  507.15, 935.3074360871938  529.65, 896.336292916894  507.15, 857.3651497465943  462.15, 857.3651497465943  " fill="none"/>
	<polygon stroke-width="0.01in" stroke="black" points="574.65, 896.336292916894  597.15, 935.3074360871938  642.15, 935.3074360871938  664.65, 896.336292916894  642.15, 857.3651497465943  597.15, 857.3651497465943  " fill="none"/>
	<polygon stroke-width="0.01in" stroke="black" points="102.14999999999998, 935.3074360871937  124.64999999999998, 974.2785792574934  169.64999999999998, 974.2785792574934  192.14999999999998, 935.3074360871937  169.64999999999998, 896.336292916894  124.64999999999998, 896.336292916894  " fill="none"/>
	<polygon stroke-width="0.01in" stroke="black" points="237.14999999999998, 935.3074360871937  259.65, 974.2785792574934  304.65, 974.2785792574934  327.15, 935.3074360871937  304.65, 896.336292916894  259.65, 896.336292916894  " fill="none"/>
	<polygon stroke-width="0.01in" stroke="black" points="372.15, 935.3074360871937  394.65, 974.2785792574934  439.65, 974.2785792574934  462.15, 935.3074360871937  439.65, 896.336292916894  394.65, 896.336292916894  " fill="none"/>
	<polygon stroke-width="0.01in" stroke="black" points="507.15, 935.3074360871937  529.65, 974.2785792574934  574.65, 974.2785792574934  597.15, 935.3074360871937  574.65, 896.336292916894  529.65, 896.336292916894  " fill="none"/>
	<polygon stroke-width="0.01in" stroke="black" points="642.15, 935.3074360871937  664.65, 974.2785792574934  709.65, 974.2785792574934  732.15, 935.3074360871937  709.65, 896.336292916894  664.65, 896.336292916894  " fill="none"/>
	<polygon stroke-width="0.01in" stroke="black" points="34.64999999999998, 974.2785792574934  57.14999999999998, 1013.2497224277932  102.14999999999998, 1013.2497224277932  124.64999999999998, 974.2785792574934  102.14999999999998, 935.3074360871938  57.14999999999998, 935.3074360871938  " fill="none"/>
	<polygon stroke-width="0.01in" stroke="black" points="169.64999999999998, 974.2785792574934  192.14999999999998, 1013.2497224277932  237.14999999999998, 1013.2497224277932  259.65, 974.2785792574934  237.14999999999998, 935.3074360871938  192.14999999999998, 935.3074360871938  " fill="none"/>
	<polygon stroke-width="0.01in" stroke="black" points="304.65, 974.2785792574934  327.15, 1013.2497224277932  372.15, 1013.2497224277932  394.65, 974.2785792574934  372.15, 935.3074360871938  327.15, 935.3074360871938  " fill="none"/>
	<polygon stroke-width="0.01in" stroke="black" points="439.65, 974.2785792574934  462.15, 1013.2497224277932  507.15, 1013.2497224277932  529.65, 974.2785792574934  507.15, 935.3074360871938  462.15, 935.3074360871938  " fill="none"/>
	<polygon stroke-width="0.01in" stroke="black" points="574.65, 974.2785792574934  597.15, 1013.2497224277932  642.15, 1013.2497224277932  664.65, 974.2785792574934  642.15, 935.3074360871938  597.15, 935.3074360871938  " fill="none"/>
</svg>
